{
  "asset": {
    "version": "2.0",
    "generator": "conversion script by ashene"
  },
  "scene": 0,
  "scenes": [
    {
      "nodes": [
        0
      ]
    }
  ],
  "nodes": [
    {
      "mesh": 0,
      "name": "60_ghost-1",
      "weights": [
        0.0,
        0.0,
        0.0,
        0.0,
        0.0,
        0.0,
        0.0,
        0.0,
        0.0,
        0.0,
        0.0,
        0.0,
        0.0,
        0.0,
        0.0,
        0.0,
        0.0,
        0.0,
        0.0,
        0.0,
        0.0,
        0.0,
        0.0,
        0.0,
        0.0,
        0.0,
        0.0,
        0.0,
        0.0,
        0.0,
        0.0,
        0.0,
        0.0,
        0.0,
        0.0,
        0.0,
        0.0,
        0.0,
        0.0,
        0.0,
        0.0,
        0.0,
        0.0,
        0.0,
        0.0,
        0.0,
        0.0,
        0.0,
        0.0,
        0.0,
        0.0,
        0.0,
        0.0,
        0.0,
        0.0,
        0.0,
        0.0,
        0.0,
        0.0,
        0.0,
        0.0,
        0.0,
        0.0,
        0.0,
        0.0,
        0.0,
        0.0,
        0.0,
        0.0,
        0.0,
        0.0,
        0.0
      ]
    }
  ],
  "meshes": [
    {
      "name": "60_ghost-1",
      "primitives": [
        {
          "attributes": {
            "POSITION": 0,
            "TEXCOORD_0": 1
          },
          "mode": 4,
          "targets": [
            {
              "POSITION": 2
            },
            {
              "POSITION": 3
            },
            {
              "POSITION": 4
            },
            {
              "POSITION": 5
            },
            {
              "POSITION": 6
            },
            {
              "POSITION": 7
            },
            {
              "POSITION": 8
            },
            {
              "POSITION": 9
            },
            {
              "POSITION": 10
            },
            {
              "POSITION": 11
            },
            {
              "POSITION": 12
            },
            {
              "POSITION": 13
            },
            {
              "POSITION": 14
            },
            {
              "POSITION": 15
            },
            {
              "POSITION": 16
            },
            {
              "POSITION": 17
            },
            {
              "POSITION": 18
            },
            {
              "POSITION": 19
            },
            {
              "POSITION": 20
            },
            {
              "POSITION": 21
            },
            {
              "POSITION": 22
            },
            {
              "POSITION": 23
            },
            {
              "POSITION": 24
            },
            {
              "POSITION": 25
            },
            {
              "POSITION": 26
            },
            {
              "POSITION": 27
            },
            {
              "POSITION": 28
            },
            {
              "POSITION": 29
            },
            {
              "POSITION": 30
            },
            {
              "POSITION": 31
            },
            {
              "POSITION": 32
            },
            {
              "POSITION": 33
            },
            {
              "POSITION": 34
            },
            {
              "POSITION": 35
            },
            {
              "POSITION": 36
            },
            {
              "POSITION": 37
            },
            {
              "POSITION": 38
            },
            {
              "POSITION": 39
            },
            {
              "POSITION": 40
            },
            {
              "POSITION": 41
            },
            {
              "POSITION": 42
            },
            {
              "POSITION": 43
            },
            {
              "POSITION": 44
            },
            {
              "POSITION": 45
            },
            {
              "POSITION": 46
            },
            {
              "POSITION": 47
            },
            {
              "POSITION": 48
            },
            {
              "POSITION": 49
            },
            {
              "POSITION": 50
            },
            {
              "POSITION": 51
            },
            {
              "POSITION": 52
            },
            {
              "POSITION": 53
            },
            {
              "POSITION": 54
            },
            {
              "POSITION": 55
            },
            {
              "POSITION": 56
            },
            {
              "POSITION": 57
            },
            {
              "POSITION": 58
            },
            {
              "POSITION": 59
            },
            {
              "POSITION": 60
            },
            {
              "POSITION": 61
            },
            {
              "POSITION": 62
            },
            {
              "POSITION": 63
            },
            {
              "POSITION": 64
            },
            {
              "POSITION": 65
            },
            {
              "POSITION": 66
            },
            {
              "POSITION": 67
            },
            {
              "POSITION": 68
            },
            {
              "POSITION": 69
            },
            {
              "POSITION": 70
            },
            {
              "POSITION": 71
            },
            {
              "POSITION": 72
            },
            {
              "POSITION": 73
            }
          ],
          "material": 0
        }
      ],
      "weights": [
        0.0,
        0.0,
        0.0,
        0.0,
        0.0,
        0.0,
        0.0,
        0.0,
        0.0,
        0.0,
        0.0,
        0.0,
        0.0,
        0.0,
        0.0,
        0.0,
        0.0,
        0.0,
        0.0,
        0.0,
        0.0,
        0.0,
        0.0,
        0.0,
        0.0,
        0.0,
        0.0,
        0.0,
        0.0,
        0.0,
        0.0,
        0.0,
        0.0,
        0.0,
        0.0,
        0.0,
        0.0,
        0.0,
        0.0,
        0.0,
        0.0,
        0.0,
        0.0,
        0.0,
        0.0,
        0.0,
        0.0,
        0.0,
        0.0,
        0.0,
        0.0,
        0.0,
        0.0,
        0.0,
        0.0,
        0.0,
        0.0,
        0.0,
        0.0,
        0.0,
        0.0,
        0.0,
        0.0,
        0.0,
        0.0,
        0.0,
        0.0,
        0.0,
        0.0,
        0.0,
        0.0,
        0.0
      ]
    }
  ],
  "buffers": [
    {
      "uri": "data:application/octet-stream;base64,",
      "byteLength": 642760
    }
  ],
  "bufferViews": [
    {
      "buffer": 0,
      "byteOffset": 0,
      "byteLength": 8424,
      "target": 34962
    },
    {
      "buffer": 0,
      "byteOffset": 8424,
      "byteLength": 5616,
      "target": 34962
    },
    {
      "buffer": 0,
      "byteOffset": 14040,
      "byteLength": 8424,
      "target": 34962
    },
    {
      "buffer": 0,
      "byteOffset": 22464,
      "byteLength": 8424,
      "target": 34962
    },
    {
      "buffer": 0,
      "byteOffset": 30888,
      "byteLength": 8424,
      "target": 34962
    },
    {
      "buffer": 0,
      "byteOffset": 39312,
      "byteLength": 8424,
      "target": 34962
    },
    {
      "buffer": 0,
      "byteOffset": 47736,
      "byteLength": 8424,
      "target": 34962
    },
    {
      "buffer": 0,
      "byteOffset": 56160,
      "byteLength": 8424,
      "target": 34962
    },
    {
      "buffer": 0,
      "byteOffset": 64584,
      "byteLength": 8424,
      "target": 34962
    },
    {
      "buffer": 0,
      "byteOffset": 73008,
      "byteLength": 8424,
      "target": 34962
    },
    {
      "buffer": 0,
      "byteOffset": 81432,
      "byteLength": 8424,
      "target": 34962
    },
    {
      "buffer": 0,
      "byteOffset": 89856,
      "byteLength": 8424,
      "target": 34962
    },
    {
      "buffer": 0,
      "byteOffset": 98280,
      "byteLength": 8424,
      "target": 34962
    },
    {
      "buffer": 0,
      "byteOffset": 106704,
      "byteLength": 8424,
      "target": 34962
    },
    {
      "buffer": 0,
      "byteOffset": 115128,
      "byteLength": 8424,
      "target": 34962
    },
    {
      "buffer": 0,
      "byteOffset": 123552,
      "byteLength": 8424,
      "target": 34962
    },
    {
      "buffer": 0,
      "byteOffset": 131976,
      "byteLength": 8424,
      "target": 34962
    },
    {
      "buffer": 0,
      "byteOffset": 140400,
      "byteLength": 8424,
      "target": 34962
    },
    {
      "buffer": 0,
      "byteOffset": 148824,
      "byteLength": 8424,
      "target": 34962
    },
    {
      "buffer": 0,
      "byteOffset": 157248,
      "byteLength": 8424,
      "target": 34962
    },
    {
      "buffer": 0,
      "byteOffset": 165672,
      "byteLength": 8424,
      "target": 34962
    },
    {
      "buffer": 0,
      "byteOffset": 174096,
      "byteLength": 8424,
      "target": 34962
    },
    {
      "buffer": 0,
      "byteOffset": 182520,
      "byteLength": 8424,
      "target": 34962
    },
    {
      "buffer": 0,
      "byteOffset": 190944,
      "byteLength": 8424,
      "target": 34962
    },
    {
      "buffer": 0,
      "byteOffset": 199368,
      "byteLength": 8424,
      "target": 34962
    },
    {
      "buffer": 0,
      "byteOffset": 207792,
      "byteLength": 8424,
      "target": 34962
    },
    {
      "buffer": 0,
      "byteOffset": 216216,
      "byteLength": 8424,
      "target": 34962
    },
    {
      "buffer": 0,
      "byteOffset": 224640,
      "byteLength": 8424,
      "target": 34962
    },
    {
      "buffer": 0,
      "byteOffset": 233064,
      "byteLength": 8424,
      "target": 34962
    },
    {
      "buffer": 0,
      "byteOffset": 241488,
      "byteLength": 8424,
      "target": 34962
    },
    {
      "buffer": 0,
      "byteOffset": 249912,
      "byteLength": 8424,
      "target": 34962
    },
    {
      "buffer": 0,
      "byteOffset": 258336,
      "byteLength": 8424,
      "target": 34962
    },
    {
      "buffer": 0,
      "byteOffset": 266760,
      "byteLength": 8424,
      "target": 34962
    },
    {
      "buffer": 0,
      "byteOffset": 275184,
      "byteLength": 8424,
      "target": 34962
    },
    {
      "buffer": 0,
      "byteOffset": 283608,
      "byteLength": 8424,
      "target": 34962
    },
    {
      "buffer": 0,
      "byteOffset": 292032,
      "byteLength": 8424,
      "target": 34962
    },
    {
      "buffer": 0,
      "byteOffset": 300456,
      "byteLength": 8424,
      "target": 34962
    },
    {
      "buffer": 0,
      "byteOffset": 308880,
      "byteLength": 8424,
      "target": 34962
    },
    {
      "buffer": 0,
      "byteOffset": 317304,
      "byteLength": 8424,
      "target": 34962
    },
    {
      "buffer": 0,
      "byteOffset": 325728,
      "byteLength": 8424,
      "target": 34962
    },
    {
      "buffer": 0,
      "byteOffset": 334152,
      "byteLength": 8424,
      "target": 34962
    },
    {
      "buffer": 0,
      "byteOffset": 342576,
      "byteLength": 8424,
      "target": 34962
    },
    {
      "buffer": 0,
      "byteOffset": 351000,
      "byteLength": 8424,
      "target": 34962
    },
    {
      "buffer": 0,
      "byteOffset": 359424,
      "byteLength": 8424,
      "target": 34962
    },
    {
      "buffer": 0,
      "byteOffset": 367848,
      "byteLength": 8424,
      "target": 34962
    },
    {
      "buffer": 0,
      "byteOffset": 376272,
      "byteLength": 8424,
      "target": 34962
    },
    {
      "buffer": 0,
      "byteOffset": 384696,
      "byteLength": 8424,
      "target": 34962
    },
    {
      "buffer": 0,
      "byteOffset": 393120,
      "byteLength": 8424,
      "target": 34962
    },
    {
      "buffer": 0,
      "byteOffset": 401544,
      "byteLength": 8424,
      "target": 34962
    },
    {
      "buffer": 0,
      "byteOffset": 409968,
      "byteLength": 8424,
      "target": 34962
    },
    {
      "buffer": 0,
      "byteOffset": 418392,
      "byteLength": 8424,
      "target": 34962
    },
    {
      "buffer": 0,
      "byteOffset": 426816,
      "byteLength": 8424,
      "target": 34962
    },
    {
      "buffer": 0,
      "byteOffset": 435240,
      "byteLength": 8424,
      "target": 34962
    },
    {
      "buffer": 0,
      "byteOffset": 443664,
      "byteLength": 8424,
      "target": 34962
    },
    {
      "buffer": 0,
      "byteOffset": 452088,
      "byteLength": 8424,
      "target": 34962
    },
    {
      "buffer": 0,
      "byteOffset": 460512,
      "byteLength": 8424,
      "target": 34962
    },
    {
      "buffer": 0,
      "byteOffset": 468936,
      "byteLength": 8424,
      "target": 34962
    },
    {
      "buffer": 0,
      "byteOffset": 477360,
      "byteLength": 8424,
      "target": 34962
    },
    {
      "buffer": 0,
      "byteOffset": 485784,
      "byteLength": 8424,
      "target": 34962
    },
    {
      "buffer": 0,
      "byteOffset": 494208,
      "byteLength": 8424,
      "target": 34962
    },
    {
      "buffer": 0,
      "byteOffset": 502632,
      "byteLength": 8424,
      "target": 34962
    },
    {
      "buffer": 0,
      "byteOffset": 511056,
      "byteLength": 8424,
      "target": 34962
    },
    {
      "buffer": 0,
      "byteOffset": 519480,
      "byteLength": 8424,
      "target": 34962
    },
    {
      "buffer": 0,
      "byteOffset": 527904,
      "byteLength": 8424,
      "target": 34962
    },
    {
      "buffer": 0,
      "byteOffset": 536328,
      "byteLength": 8424,
      "target": 34962
    },
    {
      "buffer": 0,
      "byteOffset": 544752,
      "byteLength": 8424,
      "target": 34962
    },
    {
      "buffer": 0,
      "byteOffset": 553176,
      "byteLength": 8424,
      "target": 34962
    },
    {
      "buffer": 0,
      "byteOffset": 561600,
      "byteLength": 8424,
      "target": 34962
    },
    {
      "buffer": 0,
      "byteOffset": 570024,
      "byteLength": 8424,
      "target": 34962
    },
    {
      "buffer": 0,
      "byteOffset": 578448,
      "byteLength": 8424,
      "target": 34962
    },
    {
      "buffer": 0,
      "byteOffset": 586872,
      "byteLength": 8424,
      "target": 34962
    },
    {
      "buffer": 0,
      "byteOffset": 595296,
      "byteLength": 8424,
      "target": 34962
    },
    {
      "buffer": 0,
      "byteOffset": 603720,
      "byteLength": 8424,
      "target": 34962
    },
    {
      "buffer": 0,
      "byteOffset": 612144,
      "byteLength": 8424,
      "target": 34962
    },
    {
      "buffer": 0,
      "byteOffset": 620568,
      "byteLength": 304
    },
    {
      "buffer": 0,
      "byteOffset": 620872,
      "byteLength": 21888
    }
  ],
  "accessors": [
    {
      "bufferView": 0,
      "byteOffset": 0,
      "componentType": 5126,
      "count": 702,
      "type": "VEC3",
      "min": [
        -0.60546875,
        -0.03125,
        -0.73828125
      ],
      "max": [
        0.60546875,
        2.8046875,
        0.26953125
      ]
    },
    {
      "bufferView": 1,
      "byteOffset": 0,
      "componentType": 5126,
      "count": 702,
      "type": "VEC2"
    },
    {
      "bufferView": 2,
      "byteOffset": 0,
      "componentType": 5126,
      "count": 702,
      "type": "VEC3"
    },
    {
      "bufferView": 3,
      "byteOffset": 0,
      "componentType": 5126,
      "count": 702,
      "type": "VEC3"
    },
    {
      "bufferView": 4,
      "byteOffset": 0,
      "componentType": 5126,
      "count": 702,
      "type": "VEC3"
    },
    {
      "bufferView": 5,
      "byteOffset": 0,
      "componentType": 5126,
      "count": 702,
      "type": "VEC3"
    },
    {
      "bufferView": 6,
      "byteOffset": 0,
      "componentType": 5126,
      "count": 702,
      "type": "VEC3"
    },
    {
      "bufferView": 7,
      "byteOffset": 0,
      "componentType": 5126,
      "count": 702,
      "type": "VEC3"
    },
    {
      "bufferView": 8,
      "byteOffset": 0,
      "componentType": 5126,
      "count": 702,
      "type": "VEC3"
    },
    {
      "bufferView": 9,
      "byteOffset": 0,
      "componentType": 5126,
      "count": 702,
      "type": "VEC3"
    },
    {
      "bufferView": 10,
      "byteOffset": 0,
      "componentType": 5126,
      "count": 702,
      "type": "VEC3"
    },
    {
      "bufferView": 11,
      "byteOffset": 0,
      "componentType": 5126,
      "count": 702,
      "type": "VEC3"
    },
    {
      "bufferView": 12,
      "byteOffset": 0,
      "componentType": 5126,
      "count": 702,
      "type": "VEC3"
    },
    {
      "bufferView": 13,
      "byteOffset": 0,
      "componentType": 5126,
      "count": 702,
      "type": "VEC3"
    },
    {
      "bufferView": 14,
      "byteOffset": 0,
      "componentType": 5126,
      "count": 702,
      "type": "VEC3"
    },
    {
      "bufferView": 15,
      "byteOffset": 0,
      "componentType": 5126,
      "count": 702,
      "type": "VEC3"
    },
    {
      "bufferView": 16,
      "byteOffset": 0,
      "componentType": 5126,
      "count": 702,
      "type": "VEC3"
    },
    {
      "bufferView": 17,
      "byteOffset": 0,
      "componentType": 5126,
      "count": 702,
      "type": "VEC3"
    },
    {
      "bufferView": 18,
      "byteOffset": 0,
      "componentType": 5126,
      "count": 702,
      "type": "VEC3"
    },
    {
      "bufferView": 19,
      "byteOffset": 0,
      "componentType": 5126,
      "count": 702,
      "type": "VEC3"
    },
    {
      "bufferView": 20,
      "byteOffset": 0,
      "componentType": 5126,
      "count": 702,
      "type": "VEC3"
    },
    {
      "bufferView": 21,
      "byteOffset": 0,
      "componentType": 5126,
      "count": 702,
      "type": "VEC3"
    },
    {
      "bufferView": 22,
      "byteOffset": 0,
      "componentType": 5126,
      "count": 702,
      "type": "VEC3"
    },
    {
      "bufferView": 23,
      "byteOffset": 0,
      "componentType": 5126,
      "count": 702,
      "type": "VEC3"
    },
    {
      "bufferView": 24,
      "byteOffset": 0,
      "componentType": 5126,
      "count": 702,
      "type": "VEC3"
    },
    {
      "bufferView": 25,
      "byteOffset": 0,
      "componentType": 5126,
      "count": 702,
      "type": "VEC3"
    },
    {
      "bufferView": 26,
      "byteOffset": 0,
      "componentType": 5126,
      "count": 702,
      "type": "VEC3"
    },
    {
      "bufferView": 27,
      "byteOffset": 0,
      "componentType": 5126,
      "count": 702,
      "type": "VEC3"
    },
    {
      "bufferView": 28,
      "byteOffset": 0,
      "componentType": 5126,
      "count": 702,
      "type": "VEC3"
    },
    {
      "bufferView": 29,
      "byteOffset": 0,
      "componentType": 5126,
      "count": 702,
      "type": "VEC3"
    },
    {
      "bufferView": 30,
      "byteOffset": 0,
      "componentType": 5126,
      "count": 702,
      "type": "VEC3"
    },
    {
      "bufferView": 31,
      "byteOffset": 0,
      "componentType": 5126,
      "count": 702,
      "type": "VEC3"
    },
    {
      "bufferView": 32,
      "byteOffset": 0,
      "componentType": 5126,
      "count": 702,
      "type": "VEC3"
    },
    {
      "bufferView": 33,
      "byteOffset": 0,
      "componentType": 5126,
      "count": 702,
      "type": "VEC3"
    },
    {
      "bufferView": 34,
      "byteOffset": 0,
      "componentType": 5126,
      "count": 702,
      "type": "VEC3"
    },
    {
      "bufferView": 35,
      "byteOffset": 0,
      "componentType": 5126,
      "count": 702,
      "type": "VEC3"
    },
    {
      "bufferView": 36,
      "byteOffset": 0,
      "componentType": 5126,
      "count": 702,
      "type": "VEC3"
    },
    {
      "bufferView": 37,
      "byteOffset": 0,
      "componentType": 5126,
      "count": 702,
      "type": "VEC3"
    },
    {
      "bufferView": 38,
      "byteOffset": 0,
      "componentType": 5126,
      "count": 702,
      "type": "VEC3"
    },
    {
      "bufferView": 39,
      "byteOffset": 0,
      "componentType": 5126,
      "count": 702,
      "type": "VEC3"
    },
    {
      "bufferView": 40,
      "byteOffset": 0,
      "componentType": 5126,
      "count": 702,
      "type": "VEC3"
    },
    {
      "bufferView": 41,
      "byteOffset": 0,
      "componentType": 5126,
      "count": 702,
      "type": "VEC3"
    },
    {
      "bufferView": 42,
      "byteOffset": 0,
      "componentType": 5126,
      "count": 702,
      "type": "VEC3"
    },
    {
      "bufferView": 43,
      "byteOffset": 0,
      "componentType": 5126,
      "count": 702,
      "type": "VEC3"
    },
    {
      "bufferView": 44,
      "byteOffset": 0,
      "componentType": 5126,
      "count": 702,
      "type": "VEC3"
    },
    {
      "bufferView": 45,
      "byteOffset": 0,
      "componentType": 5126,
      "count": 702,
      "type": "VEC3"
    },
    {
      "bufferView": 46,
      "byteOffset": 0,
      "componentType": 5126,
      "count": 702,
      "type": "VEC3"
    },
    {
      "bufferView": 47,
      "byteOffset": 0,
      "componentType": 5126,
      "count": 702,
      "type": "VEC3"
    },
    {
      "bufferView": 48,
      "byteOffset": 0,
      "componentType": 5126,
      "count": 702,
      "type": "VEC3"
    },
    {
      "bufferView": 49,
      "byteOffset": 0,
      "componentType": 5126,
      "count": 702,
      "type": "VEC3"
    },
    {
      "bufferView": 50,
      "byteOffset": 0,
      "componentType": 5126,
      "count": 702,
      "type": "VEC3"
    },
    {
      "bufferView": 51,
      "byteOffset": 0,
      "componentType": 5126,
      "count": 702,
      "type": "VEC3"
    },
    {
      "bufferView": 52,
      "byteOffset": 0,
      "componentType": 5126,
      "count": 702,
      "type": "VEC3"
    },
    {
      "bufferView": 53,
      "byteOffset": 0,
      "componentType": 5126,
      "count": 702,
      "type": "VEC3"
    },
    {
      "bufferView": 54,
      "byteOffset": 0,
      "componentType": 5126,
      "count": 702,
      "type": "VEC3"
    },
    {
      "bufferView": 55,
      "byteOffset": 0,
      "componentType": 5126,
      "count": 702,
      "type": "VEC3"
    },
    {
      "bufferView": 56,
      "byteOffset": 0,
      "componentType": 5126,
      "count": 702,
      "type": "VEC3"
    },
    {
      "bufferView": 57,
      "byteOffset": 0,
      "componentType": 5126,
      "count": 702,
      "type": "VEC3"
    },
    {
      "bufferView": 58,
      "byteOffset": 0,
      "componentType": 5126,
      "count": 702,
      "type": "VEC3"
    },
    {
      "bufferView": 59,
      "byteOffset": 0,
      "componentType": 5126,
      "count": 702,
      "type": "VEC3"
    },
    {
      "bufferView": 60,
      "byteOffset": 0,
      "componentType": 5126,
      "count": 702,
      "type": "VEC3"
    },
    {
      "bufferView": 61,
      "byteOffset": 0,
      "componentType": 5126,
      "count": 702,
      "type": "VEC3"
    },
    {
      "bufferView": 62,
      "byteOffset": 0,
      "componentType": 5126,
      "count": 702,
      "type": "VEC3"
    },
    {
      "bufferView": 63,
      "byteOffset": 0,
      "componentType": 5126,
      "count": 702,
      "type": "VEC3"
    },
    {
      "bufferView": 64,
      "byteOffset": 0,
      "componentType": 5126,
      "count": 702,
      "type": "VEC3"
    },
    {
      "bufferView": 65,
      "byteOffset": 0,
      "componentType": 5126,
      "count": 702,
      "type": "VEC3"
    },
    {
      "bufferView": 66,
      "byteOffset": 0,
      "componentType": 5126,
      "count": 702,
      "type": "VEC3"
    },
    {
      "bufferView": 67,
      "byteOffset": 0,
      "componentType": 5126,
      "count": 702,
      "type": "VEC3"
    },
    {
      "bufferView": 68,
      "byteOffset": 0,
      "componentType": 5126,
      "count": 702,
      "type": "VEC3"
    },
    {
      "bufferView": 69,
      "byteOffset": 0,
      "componentType": 5126,
      "count": 702,
      "type": "VEC3"
    },
    {
      "bufferView": 70,
      "byteOffset": 0,
      "componentType": 5126,
      "count": 702,
      "type": "VEC3"
    },
    {
      "bufferView": 71,
      "byteOffset": 0,
      "componentType": 5126,
      "count": 702,
      "type": "VEC3"
    },
    {
      "bufferView": 72,
      "byteOffset": 0,
      "componentType": 5126,
      "count": 702,
      "type": "VEC3"
    },
    {
      "bufferView": 73,
      "byteOffset": 0,
      "componentType": 5126,
      "count": 702,
      "type": "VEC3"
    },
    {
      "bufferView": 74,
      "byteOffset": 0,
      "componentType": 5126,
      "count": 76,
      "type": "SCALAR",
      "min": [
        0.0
      ],
      "max": [
        7.5
      ]
    },
    {
      "bufferView": 75,
      "byteOffset": 0,
      "componentType": 5126,
      "count": 5472,
      "type": "SCALAR"
    }
  ],
  "animations": [
    {
      "name": "anim_sequence",
      "samplers": [
        {
          "input": 74,
          "output": 75,
          "interpolation": "STEP"
        }
      ],
      "channels": [
        {
          "sampler": 0,
          "target": {
            "node": 0,
            "path": "weights"
          }
        }
      ]
    }
  ],
  "samplers": [
    {
      "magFilter": 9729,
      "minFilter": 9729,
      "wrapS": 10497,
      "wrapT": 10497
    }
  ],
  "images": [
    {
      "uri": "60_ghost-1.png"
    }
  ],
  "textures": [
    {
      "sampler": 0,
      "source": 0
    }
  ],
  "materials": [
    {
      "name": "material_0",
      "pbrMetallicRoughness": {
        "baseColorTexture": {
          "index": 0
        },
        "metallicFactor": 0.0,
        "roughnessFactor": 1.0
      },
      "alphaMode": "BLEND"
    }
  ]
}